<?xml version="1.0" encoding="utf-8"?>
<!-- Generator: Adobe Illustrator 25.2.0, SVG Export Plug-In . SVG Version: 6.00 Build 0)  -->
<svg version="1.1" id="Capa_1" xmlns="http://www.w3.org/2000/svg" xmlns:xlink="http://www.w3.org/1999/xlink" x="0px" y="0px"
	 viewBox="0 0 483.3 483.3" style="enable-background:new 0 0 483.3 483.3;" xml:space="preserve">
<style type="text/css">
	.st0{fill:#FFFFFF;}
</style>
<g>
	<g>
		<path class="st0" d="M392.9,158.2c-1.3-2.8-4.1-4.5-7.2-4.5H270.3l66.6-140.6c1.2-2.5,1-5.4-0.5-7.7c-1.5-2.3-4-3.7-6.8-3.7h-160
			c-3.9,0-7.2,2.8-7.9,6.5l-40,216c-0.4,2.3,0.2,4.7,1.7,6.6c1.5,1.8,3.8,2.9,6.1,2.9H222l-91.8,237.1c-1.4,3.7,0.1,7.9,3.5,9.8l0,0
			c1.2,0.7,2.6,1.1,4,1.1c2.4,0,4.7-1.1,6.3-3l248-312C393.8,164.2,394.2,160.9,392.9,158.2z M164.1,427.6l77-199
			c1-2.5,0.6-5.2-0.9-7.4c-1.5-2.2-4-3.5-6.6-3.5h-94.4l37-200H317l-66.6,140.6c-1.2,2.5-1,5.4,0.5,7.7c1.5,2.3,4,3.7,6.8,3.7h111.4
			L164.1,427.6z"/>
	</g>
</g>
<g>
	<g>
		<rect x="1.7" y="233.7" class="st0" width="80" height="16"/>
	</g>
</g>
<g>
	<g>
		<rect x="401.7" y="233.7" class="st0" width="80" height="16"/>
	</g>
</g>
<g>
	<g>
		
			<rect x="410.1" y="29.7" transform="matrix(0.7071 -0.7071 0.7071 0.7071 105.0674 328.9848)" class="st0" width="79.2" height="16"/>
	</g>
</g>
<g>
	<g>
		
			<rect x="-5.9" y="429.7" transform="matrix(0.7071 -0.7071 0.7071 0.7071 -299.6007 152.0037)" class="st0" width="79.2" height="16"/>
	</g>
</g>
<g>
	<g>
		
			<rect x="441.6" y="406.1" transform="matrix(0.7071 -0.7071 0.7071 0.7071 -183.429 448.4757)" class="st0" width="16" height="79.2"/>
	</g>
</g>
<g>
	<g>
		
			<rect x="25.7" y="-1.9" transform="matrix(0.7071 -0.7071 0.7071 0.7071 -16.7651 34.8247)" class="st0" width="16" height="79.2"/>
	</g>
</g>
</svg>
